<svg width="12" height="14" viewBox="0 0 12 14" fill="none" xmlns="http://www.w3.org/2000/svg">
<path fill-rule="evenodd" clip-rule="evenodd" d="M11.3447 4.10943H0.638815C0.408227 4.10943 0.227051 4.2906 0.227051 4.52119C0.227051 4.75178 0.408227 4.93295 0.638815 4.93295H1.05058V13.1682C1.05058 13.6212 1.42117 13.9918 1.87411 13.9918H10.1094C10.5623 13.9918 10.9329 13.6212 10.9329 13.1682V4.93295H11.3447C11.5753 4.93295 11.7565 4.75178 11.7565 4.52119C11.7565 4.2906 11.5753 4.10943 11.3447 4.10943ZM4.3447 11.5212C4.3447 11.9741 3.97411 12.3447 3.52117 12.3447C3.06823 12.3447 2.69764 11.9741 2.69764 11.5212V6.58001C2.69764 6.12707 3.06823 5.75648 3.52117 5.75648C3.97411 5.75648 4.3447 6.12707 4.3447 6.58001V11.5212ZM6.81529 11.5212C6.81529 11.9741 6.4447 12.3447 5.99176 12.3447C5.53882 12.3447 5.16823 11.9741 5.16823 11.5212V6.58001C5.16823 6.12707 5.53882 5.75648 5.99176 5.75648C6.4447 5.75648 6.81529 6.12707 6.81529 6.58001V11.5212ZM9.28588 11.5212C9.28588 11.9741 8.91529 12.3447 8.46235 12.3447C8.0094 12.3447 7.63882 11.9741 7.63882 11.5212V6.58001C7.63882 6.12707 8.0094 5.75648 8.46235 5.75648C8.91529 5.75648 9.28588 6.12707 9.28588 6.58001V11.5212ZM10.9329 1.63884H7.63882C7.63882 1.1859 7.26823 0.815308 6.81529 0.815308H5.16823C4.71529 0.815308 4.3447 1.1859 4.3447 1.63884H1.05058C0.597639 1.63884 0.227051 2.00943 0.227051 2.46237V3.2859H11.7565V2.46237C11.7565 2.00943 11.3859 1.63884 10.9329 1.63884Z" fill="white"/>
</svg>
